<?xml version="1.0" encoding="utf-8"?>
<!-- Generator: Adobe Illustrator 16.0.0, SVG Export Plug-In . SVG Version: 6.00 Build 0)  -->
<!DOCTYPE svg PUBLIC "-//W3C//DTD SVG 1.1//EN" "http://www.w3.org/Graphics/SVG/1.1/DTD/svg11.dtd">
<svg version="1.1" xmlns="http://www.w3.org/2000/svg" xmlns:xlink="http://www.w3.org/1999/xlink" x="0px" y="0px" width="1280px"
	 height="1280px" viewBox="0 0 1280 1280" enable-background="new 0 0 1280 1280" xml:space="preserve">
<g id="Слой_1" display="none">
	<title>logo_1</title>
	<path display="inline" fill="#DBBC68" d="M721.922,627.608h-72.124c-1.905,0-1.633-0.272-1.633,1.633v196.776
		c0,0.272,0,0.816-0.272,1.089c-0.816,1.089-1.905,2.178-2.994,3.538l-4.354,5.172c-0.271,0.271-0.271,0.544-0.544,0.544
		c0,0,0,0-0.272,0c-0.271-0.272-0.271-0.272-0.544-0.544l-6.532-7.621l-0.816-1.089c-0.272-0.272-0.272-0.544-0.272-0.816
		s0-0.816,0-1.089v-98.252c0-32.66,0-65.32,0-97.98c0-0.544,0-0.816,0-1.36c0-0.272,0-0.272-0.271-0.272h-73.758l-16.602-16.058
		h197.864L721.922,627.608z"/>
	<path display="inline" fill="#DBBC68" d="M760.365,629.549l-0.609,0.916c-3.053,5.188-6.104,10.682-9.156,15.871l-50.967,88.505
		l-12.818,21.974c-0.611,0.916-0.611,0.916-1.525,0.916h-19.533h-0.609c-0.307,0-0.611,0-0.307-0.305
		c0.307-0.306,0.307-0.611,0.611-0.916l45.475-78.129l16.783-28.994"/>
	<path display="inline" fill="#DBBC68" d="M551.985,649.418l34.792,59.819c9.156,15.868,18.312,31.738,27.467,47.61l0.611,0.608
		c0,0.307,0,0.307,0,0.307c0,0.305-0.305,0.305-0.305,0.305h-20.448h-0.61l-0.611-0.916l-6.104-10.681l-54.934-95.221
		l-11.598-20.143c-0.305-0.304-0.61-0.916-0.61-0.916v-0.304l0,0"/>
	<path display="inline" fill="#DBBC68" d="M639.878,800.856c0.306-0.609,0.609-0.915,0.609-1.221l20.449-35.097l4.883-8.24
		c0-0.306,0.305-0.61,0.611-0.916h20.752c0.305,0,0.305,0.306,0.305,0.306l-0.609,1.22l-45.779,79.351l-0.915,1.525l-0.306,0.306
		c-0.306-0.306-0.611-0.61-0.916-1.221l-44.253-76.298l-2.441-4.272c0-0.306-0.306-0.306-0.306-0.61l0,0
		c0-0.306,0.306-0.306,0.306-0.306h20.752c0.306,0,0.611,0,0.611,0.306c0.306,0.305,0.306,0.61,0.61,0.916l18.006,31.435
		c2.442,3.968,4.885,7.935,7.02,11.902C639.266,800.247,639.572,800.551,639.878,800.856
		C639.878,800.856,639.878,800.551,639.878,800.856z"/>
	<path display="inline" fill="#DBBC68" d="M515.589,610.067L515.589,610.067l0.264-0.152c0,0,0.682-0.043,1.098,0.068l23.243-0.057
		l109.93-0.173l12.301-0.07l1.1,0.07l0.307,0.528l10.246,17.696c0,0,0.152,0.264-0.111,0.416c0,0,0,0-0.266,0.154l-0.832-0.224
		c-18.323,0.03-36.646,0.059-54.966,0.086l-69.201-0.134"/>
	<path display="inline" fill="#DBBC68" d="M731.008,628.276l-69.2,0.134c-18.32-0.027-36.643-0.056-54.966-0.086l-0.832,0.224
		c-0.266-0.154-0.266-0.154-0.266-0.154c-0.264-0.152-0.111-0.416-0.111-0.416l10.246-17.696l0.307-0.528l1.1-0.07l12.301,0.07
		l109.93,0.173l23.243,0.057c0.416-0.111,1.099-0.068,1.099-0.068l0.264,0.152l0,0"/>
</g>
<g id="Слой_2">
	<path fill="#DBBC68" d="M640.001,1104.211L336.397,707.569L145.23,245.788l112.438,64.97L392.615,675l247.386,299.102V1104.211z"/>
	<path fill="#DBBC68" d="M640.001,974.101L887.387,675l134.947-364.242l112.438-64.97L943.606,707.569l-303.604,396.642V974.101z"/>
	<path fill="#DBBC68" d="M640.001,1071.64c-8.972,0-17.094-3.862-22.972-10.109c-5.878-6.245-9.514-14.875-9.514-24.407V632.877
		c0,0,0-303.186,0-404.247c0-9.532,64.969-9.532,64.969,0v404.247v404.247c0,9.532-3.635,18.162-9.514,24.407
		C657.093,1067.778,648.973,1071.64,640.001,1071.64z"/>
	<path fill="#DBBC68" d="M1134.771,175.789H145.23 M1022.333,240.759l112.438-64.97H640H145.23l112.438,64.97H640H1022.333"/>
</g>
</svg>
